<svg width="76" height="80" viewBox="0 0 76 80" fill="none" xmlns="http://www.w3.org/2000/svg" xmlns:xlink="http://www.w3.org/1999/xlink">
<path d="M76,40C76,62.091 58.987,80 38,80C17.013,80 0,62.091 0,40C0,17.909 17.013,0 38,0C58.987,0 76,17.909 76,40Z" fill="#22B9C1"/>
<path d="M20,40L18.586,38.586L17.172,40L18.586,41.414L20,40ZM57.5,42C58.605,42 59.5,41.105 59.5,40C59.5,38.895 58.605,38 57.5,38L57.5,42ZM33.586,23.586L18.586,38.586L21.414,41.414L36.414,26.414L33.586,23.586ZM18.586,41.414L33.586,56.414L36.414,53.586L21.414,38.586L18.586,41.414ZM20,42L57.5,42L57.5,38L20,38L20,42Z" fill="#FFFFFF"/>
</svg>
