<svg width="64" height="52" viewBox="0 0 64 52" fill="none" xmlns="http://www.w3.org/2000/svg" xmlns:xlink="http://www.w3.org/1999/xlink">
<path d="M0.517,8.666C0.847,8.669 1.181,8.753 1.489,8.928L32,26.283L62.511,8.928C62.819,8.753 63.153,8.669 63.483,8.666C63.42,5.102 63.125,3.057 61.743,1.674C59.985,-0.083 57.157,-0.083 51.5,-0.083L12.5,-0.083C6.843,-0.083 4.015,-0.083 2.257,1.674C0.875,3.057 0.58,5.102 0.517,8.666ZM63.5,12.968L33.978,29.76C32.751,30.457 31.249,30.457 30.022,29.76L0.5,12.968L0.5,38.083C0.5,43.74 0.5,46.569 2.257,48.326C4.015,50.083 6.843,50.083 12.5,50.083L51.5,50.083C57.157,50.083 59.985,50.083 61.743,48.326C63.5,46.569 63.5,43.74 63.5,38.083L63.5,12.968Z" clip-rule="evenodd" fill-rule="evenodd" fill="#222222"/>
</svg>
