<svg width="38" height="30" viewBox="0 0 38 30" fill="none" xmlns="http://www.w3.org/2000/svg" xmlns:xlink="http://www.w3.org/1999/xlink">
<path d="M2.833,15L1.393,13.613L0.057,15L1.393,16.387L2.833,15ZM35.333,17C36.438,17 37.333,16.105 37.333,15C37.333,13.895 36.438,13 35.333,13L35.333,17ZM14.393,0.113L1.393,13.613L4.274,16.387L17.274,2.887L14.393,0.113ZM1.393,16.387L14.393,29.887L17.274,27.113L4.274,13.613L1.393,16.387ZM2.833,17L35.333,17L35.333,13L2.833,13L2.833,17Z" transform="rotate(360 19.083 15)" fill="#000000"/>
</svg>
