<svg width="90" height="100" viewBox="0 0 90 100" fill="none" xmlns="http://www.w3.org/2000/svg" xmlns:xlink="http://www.w3.org/1999/xlink">
<path d="M54.697,14.941L56.183,13.603L56.183,13.603L54.697,14.941ZM69.053,30.893L67.567,32.23L67.567,32.23L69.053,30.893ZM70.965,33.465L72.839,32.766L72.839,32.766L70.965,33.465ZM69.053,85.059L67.567,83.721L67.567,83.721L69.053,85.059ZM33.75,14.5L49.393,14.5L49.393,10.5L33.75,10.5L33.75,14.5ZM56.25,85.5L33.75,85.5L33.75,89.5L56.25,89.5L56.25,85.5ZM20.75,70.833L20.75,29.167L16.75,29.167L16.75,70.833L20.75,70.833ZM69.25,36.785L69.25,70.833L73.25,70.833L73.25,36.785L69.25,36.785ZM53.21,16.279L67.567,32.23L70.54,29.555L56.183,13.603L53.21,16.279ZM73.25,36.785C73.25,35.232 73.28,33.949 72.839,32.766L69.091,34.163C69.22,34.512 69.25,34.932 69.25,36.785L73.25,36.785ZM67.567,32.23C68.748,33.543 68.968,33.835 69.091,34.163L72.839,32.766C72.39,31.563 71.526,30.65 70.54,29.555L67.567,32.23ZM33.75,85.5C30.152,85.5 27.676,85.495 25.816,85.217C24.036,84.951 23.11,84.473 22.433,83.721L19.46,86.397C20.98,88.086 22.92,88.829 25.225,89.173C27.449,89.505 30.277,89.5 33.75,89.5L33.75,85.5ZM16.75,70.833C16.75,74.711 16.747,77.8 17.039,80.218C17.336,82.673 17.967,84.738 19.46,86.397L22.433,83.721C21.729,82.939 21.262,81.82 21.01,79.737C20.753,77.616 20.75,74.813 20.75,70.833L16.75,70.833ZM56.25,89.5C59.723,89.5 62.551,89.505 64.775,89.173C67.08,88.829 69.02,88.086 70.54,86.397L67.567,83.721C66.89,84.473 65.964,84.951 64.184,85.217C62.324,85.495 59.848,85.5 56.25,85.5L56.25,89.5ZM69.25,70.833C69.25,74.813 69.247,77.616 68.99,79.737C68.738,81.82 68.271,82.939 67.567,83.721L70.54,86.397C72.033,84.738 72.664,82.673 72.961,80.218C73.253,77.8 73.25,74.711 73.25,70.833L69.25,70.833ZM49.393,14.5C51.103,14.5 51.346,14.542 51.546,14.634L53.218,11C52.039,10.458 50.75,10.5 49.393,10.5L49.393,14.5ZM56.183,13.603C55.22,12.533 54.371,11.531 53.218,11L51.546,14.634C51.771,14.738 52.006,14.94 53.21,16.279L56.183,13.603ZM33.75,10.5C30.277,10.5 27.449,10.495 25.225,10.827C22.92,11.171 20.98,11.914 19.46,13.603L22.433,16.279C23.11,15.527 24.036,15.049 25.816,14.783C27.676,14.505 30.152,14.5 33.75,14.5L33.75,10.5ZM20.75,29.167C20.75,25.187 20.753,22.384 21.01,20.263C21.262,18.18 21.729,17.061 22.433,16.279L19.46,13.603C17.967,15.262 17.336,17.327 17.039,19.782C16.747,22.2 16.75,25.289 16.75,29.167L20.75,29.167Z" fill="#33363F"/>
<path d="M40.023,52.987L39.163,54.793L39.163,54.793L40.023,52.987ZM51.957,58.67L52.817,56.864L52.817,56.864L51.957,58.67ZM51.957,66.33L52.817,68.135L52.817,68.135L51.957,66.33ZM40.023,72.013L39.163,70.207L39.163,70.207L40.023,72.013ZM39.163,54.793L51.098,60.476L52.817,56.864L40.882,51.181L39.163,54.793ZM51.098,64.524L39.163,70.207L40.882,73.819L52.817,68.135L51.098,64.524ZM31.75,57.583L31.75,67.417L35.75,67.417L35.75,57.583L31.75,57.583ZM39.163,70.207C37.825,70.844 35.75,69.889 35.75,67.417L31.75,67.417C31.75,72.124 36.281,76.01 40.882,73.819L39.163,70.207ZM51.098,60.476C51.778,60.8 52.23,61.551 52.23,62.5C52.23,63.448 51.778,64.2 51.098,64.524L52.817,68.135C55.167,67.016 56.23,64.66 56.23,62.5C56.23,60.34 55.167,57.983 52.817,56.864L51.098,60.476ZM40.882,51.181C36.281,48.99 31.75,52.875 31.75,57.583L35.75,57.583C35.75,55.11 37.825,54.156 39.163,54.793L40.882,51.181Z" fill="#33363F"/>
<path d="M49.848,36.28L51.335,34.942L49.848,36.28ZM46.75,12.5L46.75,29.167L50.75,29.167L50.75,12.5L46.75,12.5ZM56.25,39.5L71.25,39.5L71.25,35.5L56.25,35.5L56.25,39.5ZM46.75,29.167C46.75,31.08 46.747,32.696 46.902,33.979C47.062,35.3 47.418,36.569 48.362,37.618L51.335,34.942C51.18,34.77 50.988,34.447 50.873,33.498C50.753,32.512 50.75,31.182 50.75,29.167L46.75,29.167ZM56.25,35.5C54.42,35.5 53.27,35.495 52.431,35.369C51.672,35.256 51.462,35.083 51.335,34.942L48.362,37.618C49.333,38.696 50.556,39.134 51.84,39.326C53.043,39.505 54.545,39.5 56.25,39.5L56.25,35.5Z" fill="#33363F"/>
</svg>
